# xmcd
#
# Track frame offsets:
# 150
# 28292
# 47841
# 77171
# 99984
# 123432
# 149531
# 170277
# 202479
# 222816
# 251814
# 273174
# 298417
# 318017
#
# Disc length: 4574 seconds
#
#
# Revision: 1
# Processed by: cddbd v1.5.2PL0 Copyright (c) Steve Scherf et al.
# Submitted via: FreeRIP 2.53 
#
DISCID=db11dc0e
DTITLE=Alborada - Alborada
DYEAR=2006
DGENRE=Country
TTITLE0=Relampago
TTITLE1=Zisar Y Lucero
TTITLE2=puyumuyumuwan
TTITLE3=wayanacu
TTITLE4=ananau
TTITLE5=sueños de manuel
TTITLE6=kanela wayta
TTITLE7=ririñan
TTITLE8=yawar raimy
TTITLE9=condor pawan
TTITLE10=puka urku
TTITLE11=aviu tusuy
TTITLE12=chaskay
TTITLE13=wayllunakusun
EXTD=
EXTT0=
EXTT1=
EXTT2=
EXTT3=
EXTT4=
EXTT5=
EXTT6=
EXTT7=
EXTT8=
EXTT9=
EXTT10=
EXTT11=
EXTT12=
EXTT13=
PLAYORDER=
